<?xml version="1.0" encoding="utf-8"?>
<!-- Generator: Adobe Illustrator 16.0.0, SVG Export Plug-In . SVG Version: 6.00 Build 0)  -->
<!DOCTYPE svg PUBLIC "-//W3C//DTD SVG 1.1//EN" "http://www.w3.org/Graphics/SVG/1.1/DTD/svg11.dtd">
<svg version="1.1" id="Layer_2" xmlns="http://www.w3.org/2000/svg" xmlns:xlink="http://www.w3.org/1999/xlink" x="0px" y="0px"
	 width="200px" height="100px" viewBox="0 0 200 100" enable-background="new 0 0 200 100" xml:space="preserve">
<text transform="matrix(1 0 0 1 68.106 33.4648)"><tspan x="0" y="0" font-family="'Courier'" font-size="9.7856">1010101110</tspan><tspan x="0" y="11.743" font-family="'Courier'" font-size="9.7856">1010001001</tspan><tspan x="0" y="23.486" font-family="'Courier'" font-size="9.7856">0101010010</tspan><tspan x="0" y="35.229" font-family="'Courier'" font-size="9.7856">1101010110</tspan><tspan x="0" y="46.972" font-family="'Courier'" font-size="9.7856">1110001011</tspan></text>
<path fill="#898989" d="M38.279,35.736H26.405v28.06h19.604V44.101L38.279,35.736z M37.937,37.465l5.962,6.343h-5.962V37.465z
	 M27.942,62.259V37.273h8.457v8.072h8.456v16.914H27.942z"/>
<rect x="30.488" y="46.49" fill="#898989" width="11.643" height="1.333"/>
<rect x="30.488" y="50.323" fill="#898989" width="11.643" height="1.333"/>
<rect x="30.488" y="54.157" fill="#898989" width="11.643" height="1.334"/>
<rect x="30.488" y="57.991" fill="#898989" width="11.643" height="1.332"/>
<polygon fill="#898989" points="40.627,63.796 40.627,65.718 23.714,65.718 23.714,40.348 26.405,40.348 26.405,39.195 
	22.177,39.195 22.177,66.872 41.78,66.872 41.78,63.796 "/>
<polygon fill="#898989" points="36.399,66.872 36.399,68.794 19.485,68.794 19.485,43.423 22.177,43.423 22.177,42.271 
	17.948,42.271 17.948,69.946 37.552,69.946 37.552,66.872 "/>
<g id="Layer_5">
	<g>
		<circle fill="#898989" cx="149.807" cy="53.033" r="3.731"/>
		<path fill="#898989" d="M157.72,39.847l-3.516,3.516c5.331,5.332,5.331,14.009-0.001,19.341l3.517,3.518
			C164.991,58.95,164.989,47.117,157.72,39.847z"/>
		<path fill="#898989" d="M164.753,32.814l-3.517,3.517c9.21,9.21,9.209,24.196-0.001,33.405l3.518,3.518
			C175.9,62.104,175.902,43.963,164.753,32.814z"/>
	</g>
</g>
</svg>
