<?xml version="1.0" encoding="utf-8"?>
<!-- Generator: Adobe Illustrator 16.0.0, SVG Export Plug-In . SVG Version: 6.00 Build 0)  -->
<!DOCTYPE svg PUBLIC "-//W3C//DTD SVG 1.1//EN" "http://www.w3.org/Graphics/SVG/1.1/DTD/svg11.dtd">
<svg version="1.1" id="Layer_1" xmlns="http://www.w3.org/2000/svg" xmlns:xlink="http://www.w3.org/1999/xlink" x="0px" y="0px"
	 width="200px" height="100px" viewBox="0 0 200 100" enable-background="new 0 0 200 100" xml:space="preserve">
<g>
	<g id="Your_Icon">
		<path fill="none" stroke="#898989" stroke-width="5" stroke-miterlimit="10" d="M135.015,49.766
			c9.695,0.012,9.674,17.468,19.371,17.479c9.696,0.014,9.719-17.442,19.416-17.43s9.676,17.467,19.374,17.48"/>
	</g>
	<g>
		<path d="M100.085,77.688v0.731c0,0.603-0.493,1.096-1.096,1.096H84.316c-0.604,0-1.097-0.493-1.097-1.096v-0.731
			c0-0.612,0.493-1.105,1.097-1.105h14.673C99.592,76.582,100.085,77.075,100.085,77.688z"/>
		<path d="M100.085,73.284v0.729c0,0.612-0.493,1.104-1.096,1.104H84.316c-0.604,0-1.097-0.492-1.097-1.104v-0.729
			c0-0.604,0.493-1.098,1.097-1.098h14.673C99.592,72.187,100.085,72.68,100.085,73.284z"/>
		<path d="M86.151,85.39h11c0,2.192-2.933,3.664-5.5,3.664C89.084,89.053,86.151,87.582,86.151,85.39z"/>
		<path d="M91.652,10.946c-14.622,0-26.505,11.893-26.505,26.523c0,9.113,4.582,17.461,12.274,22.374
			c0.722,0.46,1.259,1.769,1.845,3.155c0.672,1.614,1.428,3.452,2.823,5.058c2.278,2.602,5.831,2.602,9.563,2.602
			c4.395,0,7.447-0.188,9.572-2.628c1.445-1.622,2.236-3.477,2.95-5.118c0.613-1.41,1.184-2.744,1.946-3.228
			c7.54-4.907,12.037-13.196,12.037-22.214C118.156,22.839,106.274,10.946,91.652,10.946z M91.523,66.508
			c-0.493-4.862-1.369-11.229-2.703-16.126c1.139-0.671,2.21-1.411,3.102-2.235c0.672,0.629,1.387,1.241,2.117,1.811
			c0.306,0.221,0.621,0.425,0.926,0.62c-0.517,2.626-1.028,6.009-1.613,10.328c-0.281,1.972-0.553,3.886-0.816,5.594
			c-0.281,0.008-0.58,0.008-0.885,0.008L91.523,66.508L91.523,66.508z M90.725,40.47c0.05-0.11,0.425-0.314,1.291-0.314h0.052
			c0.416,0,0.917,0.06,0.985,0.357c0.155,0.553-0.16,1.674-1.079,2.975C90.98,42.051,90.572,40.912,90.725,40.47z M103.857,56.205
			c-1.81,1.156-2.676,3.146-3.5,5.059c-0.604,1.419-1.251,2.874-2.245,4.021c-0.502,0.561-1.234,0.875-2.397,1.037
			c0.237-1.546,0.458-3.246,0.704-4.981c0.401-2.806,0.929-6.621,1.532-9.75c1.257,0.135,2.388-0.119,3.221-0.545
			c1.443-0.723,2.319-2.065,2.286-3.477c-0.018-1.012-0.485-2.873-3.435-4.225c-0.663-0.306-1.386-0.263-2.023,0.085
			c-0.952,0.519-1.64,1.734-2.262,3.894c-0.611-0.476-1.172-0.952-1.647-1.437c1.69-2.143,2.474-4.412,1.964-6.214
			c-0.468-1.674-2.024-2.593-4.089-2.627c-2.941,0.034-3.885,1.539-4.183,2.44c-0.621,1.845,0.357,4.165,2.065,6.35
			c-0.578,0.51-1.25,1.029-2.015,1.522c-0.825-2.142-1.769-3.698-2.899-4.226c-0.884-0.416-1.819-0.356-2.644,0.205
			c-2.738,1.768-2.891,4.344-1.862,5.976c0.978,1.564,3.043,2.517,5.432,2.16c0.901,3.442,1.819,8.442,2.525,14.944
			c-1.691-0.127-2.576-0.425-3.154-1.088c-0.969-1.097-1.556-2.541-2.134-3.928c-0.807-1.92-1.64-3.893-3.451-5.065
			c-6.486-4.132-10.354-11.188-10.354-18.864c0-12.335,10.039-22.366,22.357-22.366c12.319,0,22.349,10.031,22.349,22.366
			C114.001,45.086,110.209,52.072,103.857,56.205z M98.613,48.512c0.23-0.875,0.451-1.589,0.698-2.023
			c0.782,0.467,1.036,0.927,1.036,1.131c0,0.212-0.22,0.467-0.569,0.638c-0.304,0.153-0.68,0.254-1.147,0.254
			C98.631,48.512,98.631,48.512,98.613,48.512z M84.936,48.453c-0.943,0.017-1.598-0.357-1.862-0.782
			c-0.382-0.621,0.238-1.233,0.68-1.59C84.103,46.438,84.51,47.22,84.936,48.453z"/>
		<path d="M100.085,82.082v0.74c0,0.603-0.493,1.096-1.096,1.096H84.316c-0.604,0-1.097-0.493-1.097-1.096v-0.74
			c0-0.604,0.493-1.097,1.097-1.097h14.673C99.592,80.985,100.085,81.479,100.085,82.082z"/>
	</g>
	<g>
		<circle fill="#898989" cx="11.127" cy="52.646" r="4.6"/>
		<circle fill="#898989" cx="24.927" cy="52.646" r="4.6"/>
		<circle fill="#898989" cx="38.728" cy="52.646" r="4.6"/>
	</g>
</g>
</svg>
