<?xml version="1.0" encoding="utf-8"?>
<!-- Generator: Adobe Illustrator 16.0.0, SVG Export Plug-In . SVG Version: 6.00 Build 0)  -->
<!DOCTYPE svg PUBLIC "-//W3C//DTD SVG 1.1//EN" "http://www.w3.org/Graphics/SVG/1.1/DTD/svg11.dtd">
<svg version="1.1" id="Layer_1" xmlns="http://www.w3.org/2000/svg" xmlns:xlink="http://www.w3.org/1999/xlink" x="0px" y="0px"
	 width="200px" height="200px" viewBox="0 0 200 200" enable-background="new 0 0 200 200" xml:space="preserve">
<path id="Launch_1_" d="M151.05,131.349l-0.062-12.354l0.478-0.629c2.77-3.678,5.314-7.488,7.567-11.312
	c6.475-10.952,11.177-22.781,13.971-35.165l0.712-3.144l1.809-6.39c3.141-19.922,1.247-40.548-5.472-59.634
	c0,0-0.729-2.064-1.311-3.721c-1.728,0.289-3.884,0.645-3.884,0.645C144.894,2.98,125.92,11.278,109.989,23.65l-4.725,4.664
	l-2.41,2.139c-9.49,8.431-17.586,18.259-24.054,29.213c-2.378,4.022-4.582,8.312-6.54,12.756l-0.322,0.727L61.83,78.658
	c-12.348,6.723-22.531,16.678-29.562,28.579c-3.759,6.365-6.621,13.285-8.429,20.572c-1.485,5.997-2.251,12.172-2.271,18.369
	c0,0-0.008,2.042-0.015,3.682c2.224,0.55,7.394,1.83,10.185,2.521c0.578-2.69,1.562-7.263,1.562-7.263
	c0.908-3.669,2.334-7.121,4.199-10.279c4.683-7.931,12.154-14.012,21.279-17.024l3.121-1.031l-0.04,3.29l-0.016,2.965l0.044,3.651
	l-1.521,0.584c-6.285,2.422-11.688,6.545-15.62,11.929c0,0-1.698,2.317-3.059,4.172l60.895,35.968
	c0.969-2.084,2.182-4.684,2.182-4.684c2.669-5.75,3.732-12.114,3.052-18.411l-0.162-1.567l4.064-2.174l2.963-1.659l2.872-1.45
	l0.621,3.172c1.872,9.532,0.176,19.119-4.587,27.184c-1.901,3.217-4.288,6.191-7.129,8.819c0,0-3.344,2.908-5.346,4.647
	c1.385,1.578,3.113,3.547,3.113,3.547s2.474,2.679,3.915,4.237c1.431-0.797,3.22-1.791,3.22-1.791
	c5.396-2.994,10.439-6.644,14.986-10.854c5.508-5.098,10.187-10.942,13.944-17.309C147.323,159.142,151.123,145.418,151.05,131.349z
	 M31.537,131.112c-0.009,0.025-0.022,0.051-0.035,0.07c-0.008,0.017-0.024,0.034-0.036,0.052c-0.004,0.004-0.004,0.004-0.004,0.004
	c-0.64,1.089-1.156,2.272-1.699,3.425c0.289-1.764,0.543-3.541,0.973-5.279c1.64-6.586,4.211-12.834,7.599-18.59
	c0.889-1.511,1.852-2.984,2.858-4.417c0.071-0.097,0.139-0.191,0.21-0.29c3.109-4.363,6.73-8.349,10.769-11.907
	c2.533-2.226,12.662-8.918,15.495-10.791c-1.63,5.648-5.536,23.554-5.725,25.513C51.707,112.569,36.894,122.05,31.537,131.112z
	 M122.875,23.374c12.49-8.006,26.461-13.595,41.109-16.318c4.235,12.766,6.127,26.189,5.748,39.565
	c-0.106,3.658-0.358,7.319-0.811,10.956c-5.521-3.262-46.023-27.189-51.559-30.453C119.162,25.816,121.005,24.569,122.875,23.374z
	 M99.344,169.092c-4.272-2.527-42.84-25.304-47.117-27.828c0.335-0.367,0.679-0.723,1.033-1.073
	c0.083-0.081,0.166-0.166,0.245-0.245c0.42-0.402,0.844-0.793,1.288-1.178c2.463-2.132,5.279-3.828,8.392-5l37.44,22.117
	c0.508,3.46,0.35,6.916-0.424,10.254C99.97,167.133,99.685,168.119,99.344,169.092z M103.267,150.038
	c-2.249-1.328-32.713-19.322-34.962-20.65c-0.494-22.212,6.133-48.473,16.589-66.206c1.4-2.368,2.886-4.673,4.452-6.925
	c1.351-1.953,2.773-3.846,4.242-5.702c0.4-0.503,0.792-1.017,1.198-1.524c0.099-0.121,0.21-0.242,0.314-0.365
	c3.57-4.323,12.147-13.336,17.632-16.882l54.871,32.408c-1.288,5.456-3.286,16.21-6.802,23.28c-0.073,0.141-0.118,0.303-0.17,0.453
	c-0.244,0.604-0.505,1.193-0.753,1.785c-0.92,2.182-1.893,4.341-2.947,6.469c-1.212,2.438-2.504,4.839-3.895,7.202
	C142.548,121.123,125.171,141.059,103.267,150.038z M131.894,171.115c-0.232,0.338-0.466,0.677-0.708,1.01
	c-0.651,0.922-1.322,1.819-2.019,2.703c-0.461,0.594-0.938,1.176-1.422,1.752c-0.638,0.763-1.28,1.521-1.955,2.252
	c-0.296,0.342-0.607,0.675-0.913,1c-1.048,1.111-2.121,2.198-3.247,3.237c-1.312,1.222-2.744,2.295-4.146,3.407
	c0.748-1.042,1.528-2.06,2.172-3.15c0.02-0.025,0.031-0.058,0.047-0.089c0.009-0.012,0.021-0.025,0.024-0.035
	c0.053-0.091,0.103-0.197,0.157-0.294c0.501-0.864,0.965-1.738,1.398-2.638c0.251-0.501,0.478-1.01,0.709-1.525
	c0.209-0.471,0.406-0.94,0.596-1.416c0.273-0.659,0.532-1.325,0.765-1.996c0.034-0.073,0.052-0.145,0.075-0.219
	c2.442-7.078,1.756-20.228,0.522-27.921c6.601-4.527,15.444-13.15,21.102-18.796c-0.182,2.295-1.911,13.454-2.3,15.706
	c-1.058,6.037-2.866,11.888-5.411,17.405c-0.17,0.373-0.345,0.735-0.522,1.099c-0.29,0.6-0.582,1.193-0.886,1.783
	c-0.468,0.886-0.943,1.76-1.448,2.624c-0.068,0.118-0.128,0.24-0.199,0.362C133.531,168.646,132.722,169.887,131.894,171.115z
	 M136.624,22.58c-2.11-1.247-4.849-0.543-6.102,1.575c-1.249,2.115-0.542,4.848,1.572,6.1c2.114,1.253,4.849,0.548,6.102-1.567
	C139.445,26.568,138.738,23.828,136.624,22.58z M133.282,28.233c-0.998-0.589-1.335-1.887-0.743-2.889
	c0.596-1.006,1.892-1.334,2.89-0.743c1.004,0.592,1.345,1.887,0.751,2.893C135.584,28.498,134.288,28.828,133.282,28.233z
	 M163.298,38.333c-2.12-1.25-4.853-0.547-6.104,1.571c-1.25,2.116-0.548,4.849,1.574,6.103c2.115,1.249,4.851,0.547,6.1-1.567
	C166.119,42.323,165.413,39.586,163.298,38.333z M159.956,43.992c-1.002-0.597-1.337-1.891-0.743-2.893
	c0.592-1.008,1.886-1.337,2.89-0.742c1.004,0.588,1.34,1.883,0.748,2.889C162.255,44.249,160.959,44.584,159.956,43.992z
	 M150.474,30.759c-2.114-1.251-4.854-0.545-6.105,1.571c-1.25,2.115-0.544,4.849,1.572,6.102c2.113,1.247,4.851,0.547,6.102-1.569
	S152.589,32.009,150.474,30.759z M147.132,36.415c-1-0.593-1.335-1.891-0.743-2.891c0.596-1.006,1.89-1.337,2.888-0.744
	c1.002,0.592,1.346,1.887,0.746,2.893C149.431,36.678,148.133,37.005,147.132,36.415z M130.94,63.001
	c-7.778-4.593-17.842-2.003-22.435,5.769c-4.589,7.773-2,17.843,5.775,22.432c7.776,4.593,17.843,2,22.434-5.771
	C141.307,77.661,138.715,67.595,130.94,63.001z M115.476,89.185c-6.662-3.937-8.883-12.558-4.95-19.22
	c3.938-6.665,12.562-8.88,19.222-4.943c6.666,3.934,8.883,12.555,4.947,19.221C130.762,90.904,122.141,93.122,115.476,89.185z"/>
</svg>
